<svg xmlns="http://www.w3.org/2000/svg" width="203.516" height="60.898" viewBox="0 0 203.516 60.898">
  <path id="Tracé_9" data-name="Tracé 9" d="M23.047-52.734a6.883,6.883,0,0,1-2.129,5.176,7.042,7.042,0,0,1-5.059,2.051,6.955,6.955,0,0,1-5.1-2.129,6.955,6.955,0,0,1-2.129-5.1,6.91,6.91,0,0,1,2.129-5.059,6.955,6.955,0,0,1,5.1-2.129,6.91,6.91,0,0,1,5.059,2.129A6.91,6.91,0,0,1,23.047-52.734ZM28.32-9.453V0H2.969V-9.453h6.25V-31.445H2.969v-9.609H22.227v31.6ZM57.93-39.609v-1.445h9.336v12.031H57.93q-1.211-4.336-8.984-4.336-5.586,0-5.586,3.125A2.157,2.157,0,0,0,44.844-28.2a17.516,17.516,0,0,0,4.336,1.094A51.2,51.2,0,0,1,61.8-24.2q4.609,1.895,6.445,4.688a12.066,12.066,0,0,1,1.836,6.777q0,6.484-4.434,10.1T53.594.977q-7.422,0-10.078-2.969V0H33.984V-14.141h9.531a6.393,6.393,0,0,0,2.832,4.609,10.4,10.4,0,0,0,6.035,1.68,12.706,12.706,0,0,0,5.2-.8,2.842,2.842,0,0,0,1.68-2.793,3.021,3.021,0,0,0-.7-2.129,6.109,6.109,0,0,0-2.715-1.348q-2.012-.586-6.152-1.328Q40.469-17.7,36.426-20.918a10.533,10.533,0,0,1-4.043-8.691,10.45,10.45,0,0,1,4.2-8.789q4.2-3.2,11.074-3.2A26.181,26.181,0,0,1,57.93-39.609Zm60.234,19.063a21.419,21.419,0,0,1-2.891,11.055,20.71,20.71,0,0,1-7.812,7.7A21.662,21.662,0,0,1,96.641.977,22.359,22.359,0,0,1,85.469-1.8a19.734,19.734,0,0,1-7.676-7.7,22.247,22.247,0,0,1-2.754-11.055,21.475,21.475,0,0,1,2.832-10.977A20.429,20.429,0,0,1,85.664-39.2a21.987,21.987,0,0,1,10.977-2.793A22,22,0,0,1,107.7-39.2a20.084,20.084,0,0,1,7.7,7.676A21.829,21.829,0,0,1,118.164-20.547ZM96.563-9.219a7,7,0,0,0,6-2.988q2.168-2.988,2.168-8.574,0-5.234-2.168-8.184a7.1,7.1,0,0,0-6.074-2.949A6.821,6.821,0,0,0,90.508-29q-2.031,2.91-2.031,8.77a13.254,13.254,0,0,0,2.207,7.988A6.923,6.923,0,0,0,96.563-9.219Zm61.055-32.3v12.3a27,27,0,0,0-8.574,1.7,9.812,9.812,0,0,0-4.922,4.629q-1.738,3.281-1.738,9.375v4.063h8.164V0H121.758V-9.453H129.3V-31.445h-7.148v-9.609h19.141v10.43a15.745,15.745,0,0,1,5.352-7.852,15.016,15.016,0,0,1,9.688-3.125A7.818,7.818,0,0,1,157.617-41.523Zm42.227,16.875v15.2h6.641V0H186.8V-3.2A19.658,19.658,0,0,1,175.625.625q-6.758,0-10.82-3.477a11.706,11.706,0,0,1-4.062-9.375,12.357,12.357,0,0,1,4.551-10.02q4.551-3.77,12.09-3.77a17.565,17.565,0,0,1,4.668.566,26.208,26.208,0,0,1,4.746,1.934V-26.8a6.609,6.609,0,0,0-1.953-5q-1.953-1.875-5.859-1.875a10.366,10.366,0,0,0-7.539,3.281L160.9-32.3q4.8-9.687,19.844-9.687,10.313,0,14.707,4.238T199.844-24.648ZM178.555-7.539q3.516,0,8.242-4.219V-15.43a14.524,14.524,0,0,0-7.734-2.734,6.242,6.242,0,0,0-4.3,1.328,4.82,4.82,0,0,0-1.484,3.789Q173.281-7.539,178.555-7.539Z" transform="translate(-2.969 59.922)"/>
</svg>
